<svg xmlns="http://www.w3.org/2000/svg" viewBox="0 0 235 60"><defs><style>.cls-1{fill:#dadada;}.cls-2{fill:#627e8b;}.cls-3{fill:#b0bec5;}.cls-4{fill:#e9473a;}.cls-5{fill:#f5f5f5;}.cls-6{fill:#010101;}.cls-7,.cls-8{fill:#1d1d1b;}.cls-8{opacity:0.97;}</style></defs><g id="Calque_2" data-name="Calque 2"><g id="Calque_1_-_copie_3" data-name="Calque 1 - copie 3"><rect class="cls-1" x="60" width="175" height="60"/><path class="cls-1" d="M59,1V59H1V1H59m1-1H0V60H60V0Z"/><path class="cls-2" d="M25.05,45.25a1.2,1.2,0,0,1-.33-1.08l1.8-9a1,1,0,0,0-.79-1.2l-.2,0H13.33a1,1,0,0,0-.72,1.74l3.77,3.77V47a5.09,5.09,0,0,0,2.26,4.23l4.29,2.86A1,1,0,0,0,24.21,54l.84-.84a5,5,0,0,0,1.49-3.59v-.7A5,5,0,0,0,25.05,45.25Z"/><ellipse class="cls-3" cx="42.81" cy="27.85" rx="7.11" ry="19.31"/><path class="cls-4" d="M41.79,21.76a1,1,0,0,0-1,1V32.94a1,1,0,0,0,1,1,5.67,5.67,0,0,0,5.08-6.1A5.66,5.66,0,0,0,41.79,21.76Z"/><path class="cls-4" d="M25.53,34c-3.75,0-5.09-3.28-5.09-6.1s1.34-6.09,5.09-6.09a1,1,0,0,0,0-2H14.35a8.14,8.14,0,0,0,0,16.27H25.53a1,1,0,0,0,0-2Z"/><path class="cls-5" d="M36.71,27.85c0-6.8,1.34-13,3.49-16.31a1,1,0,0,0-1.44-1.39L25.19,19.72c-4,.18-6.78,3.47-6.78,8.13s2.77,8,6.78,8.14l13.57,9.57a1,1,0,0,0,1.42-.24,1,1,0,0,0,0-1.15C38.05,40.9,36.71,34.66,36.71,27.85Z"/><path class="cls-5" d="M42.81,48.18c-5.29,0-8.14-10.47-8.14-20.33S37.52,7.53,42.81,7.53,50.94,18,50.94,27.85,48.09,48.18,42.81,48.18Zm0-38.62c-2.89,0-6.1,7.52-6.1,18.29s3.21,18.3,6.1,18.3,6.09-7.52,6.09-18.3S45.69,9.56,42.81,9.56Z"/><path class="cls-6" d="M42.81,48.18c-5.29,0-8.14-10.47-8.14-20.33S37.52,7.53,42.81,7.53,50.94,18,50.94,27.85,48.09,48.18,42.81,48.18Zm0-38.62c-2.89,0-6.1,7.52-6.1,18.29s3.21,18.3,6.1,18.3,6.09-7.52,6.09-18.3S45.69,9.56,42.81,9.56Z"/><path class="cls-6" d="M41.79,34a1,1,0,1,1,0-2c1.68,0,3.05-1.83,3.05-4.07s-1.37-4.06-3.05-4.06a1,1,0,1,1,0-2,5.66,5.66,0,0,1,5.08,6.09A5.67,5.67,0,0,1,41.79,34Z"/><path class="cls-6" d="M39.35,45.74a1,1,0,0,1-.59-.18L25.2,36H14.35a8.14,8.14,0,0,1,0-16.27H25.2l13.56-9.57a1,1,0,0,1,1.44,1.39c-2.15,3.26-3.49,9.51-3.49,16.31s1.34,13.06,3.49,16.31a1,1,0,0,1-.85,1.58Zm-25-24a6.1,6.1,0,1,0,0,12.19H25.53a1,1,0,0,1,.58.19l10.64,7.52a42.85,42.85,0,0,1-2.08-13.81,43,43,0,0,1,2.08-13.79L26.11,21.58a1,1,0,0,1-.58.18Z"/><path class="cls-6" d="M23.49,54.28a1,1,0,0,1-.56-.17l-4.29-2.86A5.09,5.09,0,0,1,16.38,47V39.46l-3.77-3.77a1,1,0,0,1,1.44-1.44l4.06,4.07a1,1,0,0,1,.3.71v8a3,3,0,0,0,1.36,2.54l3.6,2.4.25-.25a3.08,3.08,0,0,0,.89-2.16v-.7a3.06,3.06,0,0,0-.89-2.16,3.22,3.22,0,0,1-.89-2.92l1.58-7.88c-3.58-.57-5.9-3.65-5.9-8,0-4.86,2.86-8.13,7.12-8.13a1,1,0,0,1,0,2c-3.75,0-5.09,3.28-5.09,6.09S21.78,34,25.53,34a1,1,0,0,1,1,1,.65.65,0,0,1,0,.2l-1.81,9A1.23,1.23,0,0,0,25,45.25a5.07,5.07,0,0,1,1.5,3.6v.7a5,5,0,0,1-1.48,3.59l-.85.84A1,1,0,0,1,23.49,54.28Z"/><path class="cls-7" d="M81.15,26.34l-.82-2.62H76.06l-.83,2.62H72.78L77,14.19h2.5l4.16,12.15Zm-3-9.31-1.52,4.78h3.07L78.23,17Z"/><path class="cls-7" d="M94.59,14.19V26.34H92.16L87.25,18h-.06v8.3H84.75V14.19h2.44l4.91,8.29h.06V14.19Z"/><path class="cls-7" d="M106.69,14.19V26.34h-2.43L99.36,18H99.3v8.3H96.86V14.19H99.3l4.91,8.29h.05V14.19Z"/><path class="cls-7" d="M118.75,19.19v2.19a5.09,5.09,0,0,1-1.42,3.71,4.9,4.9,0,0,1-3.68,1.45,5.16,5.16,0,0,1-2.63-.66A4.63,4.63,0,0,1,109.24,24a5.42,5.42,0,0,1-.64-2.66V19.19A5.12,5.12,0,0,1,110,15.48,4.87,4.87,0,0,1,113.66,14a4.94,4.94,0,0,1,3.67,1.45A5.12,5.12,0,0,1,118.75,19.19Zm-2.44,2.19V19.17a3.63,3.63,0,0,0-.71-2.34,2.37,2.37,0,0,0-1.95-.9,2.3,2.3,0,0,0-1.92.89,3.73,3.73,0,0,0-.69,2.35v2.21a3.73,3.73,0,0,0,.7,2.37,2.52,2.52,0,0,0,3.86,0A3.68,3.68,0,0,0,116.31,21.38Z"/><path class="cls-7" d="M130.48,14.19V26.34h-2.43L123.14,18h0v8.3h-2.44V14.19h2.44l4.9,8.29h.06V14.19Z"/><path class="cls-7" d="M139.57,22.23h2.35v.05a4,4,0,0,1-1.19,3.12,4.87,4.87,0,0,1-3.43,1.14,4.75,4.75,0,0,1-3.56-1.4,5,5,0,0,1-1.37-3.65V19.08a5.09,5.09,0,0,1,1.34-3.64A4.64,4.64,0,0,1,137.25,14a5,5,0,0,1,3.47,1.15A4,4,0,0,1,142,18.34l0,.05h-2.37c0-1.65-.79-2.48-2.37-2.48a2,2,0,0,0-1.73.87,3.78,3.78,0,0,0-.65,2.28v2.43a3.68,3.68,0,0,0,.68,2.3,2.51,2.51,0,0,0,3.53.27A2.67,2.67,0,0,0,139.57,22.23Z"/><path class="cls-7" d="M151.16,19.12V21h-5v3.47H152v1.87h-8.33V14.19H152v1.87h-5.87v3.06Z"/><path class="cls-8" d="M77.16,45.8a3.28,3.28,0,0,0,2-.54,1.63,1.63,0,0,0,.75-1.39,1.69,1.69,0,0,0-.64-1.39,5.82,5.82,0,0,0-2.17-.93,6.88,6.88,0,0,1-2.58-1.12,2.24,2.24,0,0,1-.83-1.83,2.3,2.3,0,0,1,1-1.89A4,4,0,0,1,77.13,36a3.69,3.69,0,0,1,2.53.86,2.66,2.66,0,0,1,1,2.16v0h-.78a2.17,2.17,0,0,0-.73-1.7,2.86,2.86,0,0,0-2-.64,3.06,3.06,0,0,0-1.92.53,1.64,1.64,0,0,0-.71,1.35,1.61,1.61,0,0,0,.65,1.32,6.32,6.32,0,0,0,2.28.92A6.13,6.13,0,0,1,79.89,42a2.41,2.41,0,0,1,.84,1.91,2.25,2.25,0,0,1-1,1.91,4.21,4.21,0,0,1-2.57.73,4.58,4.58,0,0,1-2.68-.76,2.62,2.62,0,0,1-1.11-2.26v0h.78a2.12,2.12,0,0,0,.41,1.32A3.08,3.08,0,0,0,77.16,45.8Z"/><path class="cls-8" d="M82.92,36.8h.84v2h1.68v.69H83.76v5c0,.91.33,1.37,1,1.37a6.22,6.22,0,0,0,.85-.07l.13.62a2.87,2.87,0,0,1-1.13.19c-1.12,0-1.68-.71-1.68-2.11v-5H81.6v-.69h1.32Z"/><path class="cls-8" d="M89.76,46.51a2.3,2.3,0,0,1-1.9-.83,4,4,0,0,1-.66-2.52V38.75H88v4.42a3.36,3.36,0,0,0,.46,2,1.58,1.58,0,0,0,1.36.61,2.16,2.16,0,0,0,2.32-1.61V38.75H93v7.61h-.75l-.07-1.24A2.59,2.59,0,0,1,89.76,46.51Z"/><path class="cls-8" d="M94.91,42.77v-.15a5,5,0,0,1,.77-2.93,2.49,2.49,0,0,1,2.14-1.08,2.59,2.59,0,0,1,2.36,1.3V35.39H101v11h-.74l-.07-1.1a2.68,2.68,0,0,1-2.39,1.25,2.56,2.56,0,0,1-2.14-1A4.4,4.4,0,0,1,94.91,42.77Zm.84-.15v.15A3.82,3.82,0,0,0,96.31,45a1.88,1.88,0,0,0,1.65.79,2.23,2.23,0,0,0,2.21-1.37V40.83A2.24,2.24,0,0,0,98,39.34a1.85,1.85,0,0,0-1.66.89A4.38,4.38,0,0,0,95.75,42.62Z"/><path class="cls-8" d="M104.2,35.38v1.17h-.84V35.38Zm0,3.35v7.61h-.84V38.73Z"/><path class="cls-8" d="M110.57,38.73l2.1,5.71.25.89h0l.27-.89,2.06-5.71h.88l-2.89,7.61h-.68l-2.89-7.61Z"/><path class="cls-8" d="M117,42.67v-.22a4.1,4.1,0,0,1,.92-2.77,3.32,3.32,0,0,1,4.88,0,4.05,4.05,0,0,1,.93,2.77v.22a4.1,4.1,0,0,1-.92,2.77,3.07,3.07,0,0,1-2.44,1.07,3.11,3.11,0,0,1-2.45-1.06A4.12,4.12,0,0,1,117,42.67Zm.84-.22v.22a3.57,3.57,0,0,0,.68,2.25,2.37,2.37,0,0,0,3.69,0,3.61,3.61,0,0,0,.68-2.25v-.22a3.56,3.56,0,0,0-.69-2.24,2.36,2.36,0,0,0-3.68,0A3.58,3.58,0,0,0,117.81,42.45Z"/><path class="cls-8" d="M128,46.51a2.28,2.28,0,0,1-1.89-.83,4,4,0,0,1-.67-2.52V38.75h.85v4.42a3.44,3.44,0,0,0,.45,2,1.6,1.6,0,0,0,1.37.61,2.17,2.17,0,0,0,2.32-1.61V38.75h.84v7.61h-.75l-.06-1.24A2.61,2.61,0,0,1,128,46.51Z"/><path class="cls-8" d="M136.06,45.8h0a2.33,2.33,0,0,0,1.43-.4,1.14,1.14,0,0,0,.53-1,1.19,1.19,0,0,0-.45-1,3.72,3.72,0,0,0-1.57-.63,5.19,5.19,0,0,1-2-.8,1.62,1.62,0,0,1-.63-1.37,1.78,1.78,0,0,1,.74-1.47,3.09,3.09,0,0,1,2-.59,3,3,0,0,1,2,.62,1.88,1.88,0,0,1,.72,1.61v0H138a1.39,1.39,0,0,0-.54-1.1,2.19,2.19,0,0,0-1.43-.45,2.12,2.12,0,0,0-1.36.38,1.14,1.14,0,0,0-.48.94,1.08,1.08,0,0,0,.42.9,4.48,4.48,0,0,0,1.69.61,4.77,4.77,0,0,1,1.93.81,1.76,1.76,0,0,1,.66,1.45,1.81,1.81,0,0,1-.77,1.5,3.36,3.36,0,0,1-2.08.59,3.29,3.29,0,0,1-2.12-.65,1.87,1.87,0,0,1-.77-1.59l0,0h.77a1.45,1.45,0,0,0,.64,1.18A2.65,2.65,0,0,0,136.06,45.8Z"/><path class="cls-8" d="M145.73,35.38v1.17h-.84V35.38Zm0,3.35v7.61h-.84V38.73Z"/><path class="cls-8" d="M148.06,38.73h.75l.07,1.33a2.58,2.58,0,0,1,2.47-1.47,2.34,2.34,0,0,1,1.89.77,3.62,3.62,0,0,1,.64,2.35v4.63H153V41.72a2.79,2.79,0,0,0-.47-1.83,1.68,1.68,0,0,0-1.37-.56,2.3,2.3,0,0,0-1.47.45A2.59,2.59,0,0,0,148.9,41v5.31h-.84Z"/><path class="cls-8" d="M157.53,46.34h-.84V39.42h-1.27v-.69h1.27V37.62a2.56,2.56,0,0,1,.56-1.77,2.07,2.07,0,0,1,1.62-.62,3.73,3.73,0,0,1,.95.13l-.11.69A3.55,3.55,0,0,0,159,36a1.28,1.28,0,0,0-1,.43,1.78,1.78,0,0,0-.37,1.22v1.11h1.81v.69h-1.81Z"/><path class="cls-8" d="M160.34,42.67v-.22a4,4,0,0,1,.92-2.77,3.32,3.32,0,0,1,4.88,0,4.1,4.1,0,0,1,.92,2.77v.22a4.09,4.09,0,0,1-.91,2.77,3.34,3.34,0,0,1-4.89,0A4.07,4.07,0,0,1,160.34,42.67Zm.84-.22v.22a3.57,3.57,0,0,0,.68,2.25,2.37,2.37,0,0,0,3.69,0,3.61,3.61,0,0,0,.68-2.25v-.22a3.56,3.56,0,0,0-.69-2.24,2.36,2.36,0,0,0-3.68,0A3.58,3.58,0,0,0,161.18,42.45Z"/><path class="cls-8" d="M169.67,46.34h-.84V38.73h.74l.1,1.27v.09a2.34,2.34,0,0,1,2.21-1.5,2,2,0,0,1,.56.08l-.11.79-.63-.05a1.91,1.91,0,0,0-1.28.44,2.42,2.42,0,0,0-.75,1.24Z"/><path class="cls-8" d="M179.41,41.51v4.83h-.86V41.89a3.18,3.18,0,0,0-.48-2,1.67,1.67,0,0,0-1.4-.61A2.06,2.06,0,0,0,174.53,41v5.34h-.85V38.73h.76l.08,1.26a2.58,2.58,0,0,1,2.43-1.4,2.18,2.18,0,0,1,2.29,1.71,2.58,2.58,0,0,1,2.53-1.71c1.7,0,2.54,1.11,2.54,3.32v4.43h-.84V41.89a3.2,3.2,0,0,0-.47-2,1.71,1.71,0,0,0-1.42-.6,2,2,0,0,0-1.49.58A2.84,2.84,0,0,0,179.41,41.51Z"/><path class="cls-8" d="M189.34,46.51A3,3,0,0,1,187,45.45a3.84,3.84,0,0,1-.95-2.67v-.39a4,4,0,0,1,.93-2.7,2.93,2.93,0,0,1,2.31-1.08,2.76,2.76,0,0,1,2.17.88,3.34,3.34,0,0,1,.81,2.37v.72h-5.37v.2a3.39,3.39,0,0,0,.68,2.17,2.22,2.22,0,0,0,1.79.85,3,3,0,0,0,2.29-.85l.36.58A3.53,3.53,0,0,1,189.34,46.51Zm2.06-4.85a2.44,2.44,0,0,0-.59-1.68,2,2,0,0,0-1.54-.65,2.06,2.06,0,0,0-1.6.7,3,3,0,0,0-.74,1.8l0,0h4.45Z"/></g></g></svg>