<?xml version="1.0" encoding="iso-8859-1"?>
<!-- Generator: Adobe Illustrator 19.0.0, SVG Export Plug-In . SVG Version: 6.00 Build 0)  -->
<svg version="1.1" id="Layer_1" xmlns="http://www.w3.org/2000/svg" xmlns:xlink="http://www.w3.org/1999/xlink" x="0px" y="0px"
	 viewBox="0 0 299.268 299.268" style="enable-background:new 0 0 299.268 299.268;" xml:space="preserve">
<g>
	<g>
		<g>
			<path d="M258.049,0H85.873c-1.744,0-3.528,0.702-4.827,1.999L36.392,46.654c-1.311,1.311-1.998,3.072-1.998,4.826v240.964
				c0,3.769,3.055,6.825,6.825,6.825h216.83c3.77,0,6.825-3.056,6.825-6.825V6.825C264.874,3.056,261.818,0,258.049,0z
				 M79.048,23.302v21.352H57.695L79.048,23.302z M48.043,285.618V58.305h37.829c3.77,0,6.825-3.056,6.825-6.825V13.65h158.527
				v271.968H48.043z"/>
			<path d="M216.515,112.33H82.752c-3.77-0.001-6.825,3.055-6.825,6.825c0,3.769,3.055,6.825,6.825,6.825h133.763
				c3.77,0,6.825-3.056,6.825-6.825C223.34,115.385,220.285,112.33,216.515,112.33z"/>
			<path d="M101.404,169.199h96.46c3.77,0,6.825-3.056,6.825-6.825c0-3.769-3.055-6.825-6.825-6.825h-96.46
				c-3.77,0-6.825,3.056-6.825,6.825C94.579,166.143,97.633,169.199,101.404,169.199z"/>
			<path d="M101.404,212.419h96.46c3.77,0,6.825-3.056,6.825-6.825s-3.055-6.825-6.825-6.825h-96.46
				c-3.77,0-6.825,3.056-6.825,6.825S97.633,212.419,101.404,212.419z"/>
			<path d="M216.515,241.99H82.752c-3.77,0-6.825,3.056-6.825,6.825s3.055,6.825,6.825,6.825h133.763
				c3.77,0,6.825-3.056,6.825-6.825S220.285,241.99,216.515,241.99z"/>
			<path d="M123.244,87.299h52.78c3.77,0,6.825-3.056,6.825-6.825v-23.66c0-3.769-3.055-6.825-6.825-6.825h-52.78
				c-3.77,0-6.825,3.056-6.825,6.825v23.66C116.419,84.243,119.473,87.299,123.244,87.299z M130.069,63.639h39.13v10.01h-39.13
				V63.639z"/>
		</g>
	</g>
</g>
<g>
</g>
<g>
</g>
<g>
</g>
<g>
</g>
<g>
</g>
<g>
</g>
<g>
</g>
<g>
</g>
<g>
</g>
<g>
</g>
<g>
</g>
<g>
</g>
<g>
</g>
<g>
</g>
<g>
</g>
</svg>
