<svg width="69" height="32" viewBox="0 0 69 32" fill="none" xmlns="http://www.w3.org/2000/svg">
<g clip-path="url(#clip0_540_14082)">
<path d="M7.3284 21.15C9.34319 21.15 10.7316 20.4819 10.7316 19.2605C10.7316 18.3314 9.96955 17.6633 8.6542 17.4336L5.20922 16.8282C2.81862 16.4315 0.605481 15.231 0.605481 12.4123C0.605481 9.39537 3.22575 7.53717 7.09874 7.53717C10.1053 7.53717 13.592 8.56022 13.9261 12.6524H10.7316C10.5646 10.9613 9.07177 10.2932 7.09874 10.2932C5.12571 10.2932 4.01914 11.0239 4.01914 12.12C4.01914 12.9552 4.61418 13.7486 6.43062 14.0513L9.34319 14.5106C11.692 14.9491 14.0096 15.9721 14.0096 18.9891C14.0096 22.2775 11.1283 23.9687 7.22401 23.9687C3.54937 23.9687 0.396694 22.5072 0 18.3941L3.17355 18.4358C3.53893 20.3567 4.95868 21.15 7.31796 21.15H7.3284Z" fill="#3C3C3B"/>
<path d="M27.7686 23.3423C26.4115 23.8434 25.284 23.9687 24.2192 23.9687C20.2523 23.9687 18.1331 21.5781 18.1331 17.5589V10.8673H14.4585V7.97564H18.1331V2.22357H21.5781V7.97564H27.3406V10.8673H21.5781V17.5694C21.5781 19.8243 22.7055 20.7951 24.6264 20.7951C25.5555 20.7951 26.4741 20.5237 27.278 20.1896L27.7582 23.3423H27.7686Z" fill="#3C3C3B"/>
<path d="M44.3567 7.97565V23.5929H40.9535V22.0687C39.5963 23.3006 37.9052 24 35.8904 24C31.8504 24 29.1361 21.1083 29.1361 16.6298V7.97565H32.5394V16.4106C32.5394 19.2606 34.0948 20.8682 36.5794 20.8682C38.0931 20.8682 39.6903 20.0122 40.9535 18.415V7.97565H44.3462H44.3567Z" fill="#3C3C3B"/>
<path d="M61.9887 0V23.572H58.5646V22.3088C57.2388 23.3736 55.5581 23.9687 53.5642 23.9687C49.1901 23.9687 45.6825 20.3254 45.6825 15.7321C45.6825 11.1388 49.1901 7.56851 53.5642 7.56851C55.5581 7.56851 57.2388 8.17399 58.5646 9.19704V0H61.9887ZM58.5646 18.5716V12.9552C57.4058 11.2953 55.7877 10.7003 54.0652 10.7003C51.2153 10.7003 49.1274 12.9865 49.1274 15.7425C49.1274 18.4985 51.2049 20.8578 54.0652 20.8578C55.7877 20.8578 57.4058 20.2523 58.5646 18.5716V18.5716Z" fill="#FFB527"/>
<path d="M67.1666 7.97565V23.5511H63.7738V7.97565H67.1666Z" fill="#FFB527"/>
<path d="M68.9413 2.31004e-06L63.7738 1.77469L67.1666 5.18835L68.9413 -0.010437V2.31004e-06Z" fill="#FFB527"/>
</g>
<defs>
<clipPath id="clip0_540_14082">
<rect width="68.9413" height="24" fill="white"/>
</clipPath>
</defs>
</svg>
